# xmcd
#
# Track frame offsets:
#	150
#	16879
#	32472
#	46124
#	58048
#	73943
#	83029
#	99635
#	111696
#	126610
#	138169
#	152700
#
# Disc length: 2239 seconds
#
# Revision: 1
# Processed by: cddbd v1.5.1PL0 Copyright (c) Steve Scherf et al.
# Submitted via: audiograbber 1.83.01
#
DISCID=a408bd0c
DTITLE=Die Mayrhofner - Massai in Lederhose
DYEAR=2005
DGENRE=Volksmusik
TTITLE0=Massai in Lederhose
TTITLE1=Ganz stad
TTITLE2=10 x Wenn die Musi spielt
TTITLE3=Tango Alpina
TTITLE4=Sepp der Minsistrant
TTITLE5=Strasser Polka
TTITLE6=Hirten der Heimat
TTITLE7=Mei steirische Harmonika
TTITLE8=River Dance-Jodler
TTITLE9=Narrisch guat
TTITLE10=Der Kuhtutternmassör
TTITLE11=Balkonien
EXTD=
EXTT0=
EXTT1=
EXTT2=
EXTT3=
EXTT4=
EXTT5=
EXTT6=
EXTT7=
EXTT8=
EXTT9=
EXTT10=
EXTT11=
PLAYORDER=
